<?xml version="1.0" encoding="UTF-8"?>
<svg width="16px" height="18px" viewBox="0 0 16 18" version="1.1" xmlns="http://www.w3.org/2000/svg" xmlns:xlink="http://www.w3.org/1999/xlink">
    <title>chanpin-2</title>
    <g id="页面-1" stroke="none" stroke-width="1" fill="none" fill-rule="evenodd">
        <g id="计划BOM-默认" transform="translate(-767.000000, -296.000000)" fill="#0064C8" fill-rule="nonzero">
            <g id="编组-7" transform="translate(423.000000, 274.000000)">
                <g id="编组-10" transform="translate(332.000000, 0.000000)">
                    <g id="chanpin-2" transform="translate(12.000000, 22.000000)">
                        <path d="M7.8186863,7.81308682 C7.43895714,7.81308682 7.07636465,7.73722716 6.79565126,7.59754683 L1.20469775,4.82272035 C0.822001954,4.63271919 0.601598492,4.32783731 0.599348088,3.98689128 C0.59713109,3.64143944 0.81901787,3.32904199 1.20843222,3.12928996 L6.85819489,0.23579856 C7.1560275,0.083357616 7.53947368,0 7.93930616,0 C8.31903532,0 8.68164526,0.0765988904 8.9623412,0.215522383 L14.5532947,2.99034887 C14.936008,3.18035002 15.156394,3.48598875 15.1586444,3.82693477 C15.1608614,4.17238662 14.938992,4.48478407 14.5495777,4.68379685 L8.89979757,7.57727066 C8.60198241,7.7297292 8.21851878,7.81382605 7.81795337,7.81382605 L7.8186863,7.81308682 Z" id="路径"></path>
                        <path d="M6.6571618,17.9999824 C6.4635802,17.9999824 6.26254712,17.9481655 6.05629624,17.8475415 L6.04439481,17.8407827 L1.04833868,15.1973642 C0.450457211,14.8992234 0,14.2609111 0,13.7104445 L0,6.58373799 C0,6.08434913 0.364093257,5.72163086 0.864442273,5.72163086 C1.05802387,5.72163086 1.25905696,5.77269092 1.46530783,5.8740718 L1.47720927,5.88009129 L6.47326539,8.52349224 C7.07114687,8.82163301 7.52160408,9.45996296 7.52160408,10.0111687 L7.52160408,17.1378753 C7.52160408,17.6372641 7.1582612,17.9999824 6.6571618,17.9999824 Z" id="路径"></path>
                        <path d="M9.34357113,18 C8.84247173,18 8.47986179,17.6372641 8.47986179,17.1378753 L8.47986179,10.0111687 C8.47986179,9.45996296 8.92958607,8.82163301 9.52746754,8.52424908 L14.5354251,5.8740894 C14.7409256,5.77270852 14.9427091,5.72163086 15.1362907,5.72163086 C15.6366397,5.72163086 16,6.08434913 16,6.58373799 L16,13.7096877 C16,14.2609111 15.5502757,14.8992234 14.9523942,15.1966073 L9.94443669,17.8475591 C9.75829911,17.9439349 9.55276644,17.996079 9.34357113,18 L9.34357113,18 Z" id="路径"></path>
                    </g>
                </g>
            </g>
        </g>
    </g>
</svg>